<svg width="0" height="0" class="hidden">
    <symbol enable-background="new 0 0 500 500" id="paper" version="1.1" xml:space="preserve"
        xmlns="http://www.w3.org/2000/svg"
        xmlns:xlink="http://www.w3.org/1999/xlink" viewBox="0 0 500 500">
        <g>
            <path d="M296.268,329.697c29.293-79.942,140.339-165.188,136.68-246.971c-1.774-34.113-38.673-37.989-65.959-37.486   c-40.863-0.981-80.925,0.286-120.274,3.139c-31.802,4.172-68.133,2.717-95.235,21.942c-16.213,13.892-28.446,32.849-30.631,54.31   c-0.303,1.689,0.469,2.439,1.877,2.292c20.843-0.51,41.717-0.368,62.552-1.616c2.857-0.118,2.67-0.385,1.844,2.331   c-19.134,57.705-61.042,103.656-91.226,155.56C66.763,328.334,45.779,410.76,103.66,441.89   c17.452,9.119,37.507,9.347,56.746,10.584c57.536,4.475,115.462,1.994,173.107,1.329c41.814-0.199,69.121-40.912,85.095-75.074   c2.47-6.484,8.814-19.317-2.163-20.776c-26.22-4.247-52.83-5.411-79.137-9.11c-14.742-1.879-29.503-3.61-44.297-5.032   C289.911,343.978,295.927,331.859,296.268,329.697z" fill="#58454D"></path>
            <path d="M124.307,122.166c9.666-37.99,36.75-65.664,86.589-66.772c23.289-6.042,160.452-8.291,181.182-3.733   c-27.894,10.221-47.034,34.401-56.746,61.149L124.307,122.166z" fill="#EDD5B9"></path>
            <path d="M192.732,122.166c-2.776,38.989-138.048,201.755-121.073,254.996c5.685,40.484,21.644,62.078,47.009,68.174   s206.366,4.283,206.366,4.283c-152.185-98.591,142.272-275.68,99.644-381.384c-32.596-41.645-80.551,20.911-87.757,46.043   L192.732,122.166z" fill="#E6BC97"></path>
            <path d="M297.995,308.657c2.969-47.105,37.681-84.106,46.351-129.379c2.293-14.013,1.883-28.88-7.632-40.301   c-6.82-3.375-15.773-2.697-23.348-4.19c-43.823-4.704-89.059,1.451-129.478,19.242c4.656-10.282,9.375-20.673,12.153-31.644   c0.229-1.017,0.746-1.211,1.643-1.255c31.469-1.616,62.932-3.36,94.397-5.052c15.245-0.838,28.006-2.409,43.251-3.267   c3.206-0.181,5.901-1.636,6.237-4.77c25.37-67.031,111.082-81.409,80.027,11.678C393.576,190.351,334.855,243.074,297.995,308.657z   " fill="#DBA278"></path>
            <path d="M87.617,420.718c21.832,12.778,48.952,9.262,73.176,7.81c42.747-3.57,86.985-19.306,128.909-7.705   c5.373,10.808,13.347,19.71,22.82,26.925c-10.037,2.408-111.896-0.097-116.499-0.261   C159.516,441.774,114.433,452.182,87.617,420.718z" fill="#DBA278"></path>
            <path d="M177.286,170.892c4.499-1.776-6.364,13.408-6.766,14.845c-8.356,12.374-13.038,26.261-18.762,39.815   c-7.077,22.667-5.193,47.493-15.546,69.214c-10.709,26.945-31.42,47.365-47.742,70.668c-7.981,13.708-6.816,30.099-4.886,45.216   c0.073,0.686,0.305,1.513-0.797,1.667C49.303,319.171,137.724,245.837,177.286,170.892z" fill="#ECCBAD"></path>
            <path d="M288.63,350.914c0.104,0.013,96.48,10.859,127.308,11.414c3.686,0.056-6.816,18.856-7.824,21.464   c-15.312,36.241-60.049,86.591-100.078,52.272C277.417,409.351,284.361,351.261,288.63,350.914z" fill="#E4C39D"></path>
            <path d="M203.861,118.362c9.741-1.498,19.372-3.598,28.632-6.968c19.138-5.708,39.761-9.267,55.835-21.963   c12.786-11.996,24.128-25.989,37.303-37.243c18.976-0.184,37.257-0.293,56.331,0.841c-23.063,12.554-40.006,32.465-49.635,56.706   c-0.363,1.029-0.892,1.431-1.959,1.489c-11.911,0.648-23.821,1.326-35.731,2.007C264.379,114.946,234.126,116.758,203.861,118.362z   " fill="#E4C39D"></path>
            <path d="M130.958,334.371c0,0-34.342,17.84-38.994,36.581c-14.977,84.01,62.8,3.079,55.408-25.509   C140.389,332.212,136.729,332.379,130.958,334.371z" fill="#ECCBAD"></path>
            <path d="M110.072,347.625c0.034-0.008,0.07-0.014,0.101-0.024c0,0,0,0,0,0c-0.034-0.004-0.069-0.008-0.103-0.012   C110.069,347.6,110.072,347.614,110.072,347.625z" fill="#58454D"></path>
            <path d="M144.403,344.469c0.114,0.008,0.227,0.016,0.341,0.024c0.004-0.012,0.008-0.025,0.011-0.037   C144.645,344.463,144.531,344.469,144.403,344.469z" fill="#58454D"></path>
            <path d="M126.624,380.662c-0.047,0.001-0.095,0.002-0.142,0.002c0.046,0.012,0.093,0.014,0.139,0.025   C126.622,380.681,126.622,380.67,126.624,380.662z" fill="#58454D"></path>
            <path d="M296.268,329.697c29.293-79.942,140.339-165.188,136.68-246.971c-1.774-34.113-38.673-37.989-65.959-37.486   c-40.863-0.981-80.925,0.286-120.274,3.139c-31.802,4.172-68.133,2.717-95.235,21.942c-16.213,13.892-28.446,32.849-30.631,54.31   c-0.303,1.689,0.469,2.439,1.877,2.292c20.843-0.51,41.717-0.368,62.552-1.616c2.857-0.118,2.67-0.385,1.844,2.331   c-19.134,57.705-61.042,103.656-91.226,155.56C66.763,328.334,45.779,410.76,103.66,441.89   c17.452,9.119,37.507,9.347,56.746,10.584c57.536,4.475,115.462,1.994,173.107,1.329c41.814-0.199,69.121-40.912,85.095-75.074   c2.47-6.484,8.814-19.317-2.163-20.776c-8.441-1.367-121.74-13.979-123.434-14.142   C289.911,343.978,295.927,331.859,296.268,329.697z M129.871,119.178c8.904-28.574,31.888-55.357,63.163-58.189   c61.31-6.866,123.004-8.172,184.649-6.022c-22.818,11.169-35.931,32.565-47.21,53.253C330.315,108.23,130,119.168,129.871,119.178z    M311.162,355.123c22.592,1.942,45.04,5.256,67.662,6.881c11.126,0.862,22.248,1.79,33.413,1.991c1.669,0.03,0.919,0.912,0.7,1.623   c-11.989,30.127-28.622,63.209-60.263,76.24c-41.112,17.067-68.255-31.402-65.62-67.243   C289.023,346.014,285.111,354.031,311.162,355.123z M287.07,330.766c-10.591,28.44-12.223,60.939,0.345,89.004l0,0   c5.229,10.519,12.99,19.183,22.21,26.205c-15.803,3.792-32.735,0.144-48.933,0.914c-30.286-0.613-60.692,0.2-90.815-3.433   c-31.427-0.924-70.38-1.34-85.993-34.154c-28.863-77.941,35.206-147.469,75.917-207.623c12.675-20.475,24.764-41.55,33.31-64.118   c6.19-18.768,1.716-11.265,23.892-13.788c41.401-2.226,76.923-4.113,118.845-6.474c5.879,0.01,4.602-6.562,7.109-10.196   c26.663-64.812,105.087-69.14,75.057,16.253C388.427,200.574,318.159,254.542,287.07,330.766z" fill="#58454D"></path>
            <path d="M127.292,385.68c0.009,0.008,0.018,0.009,0.027,0.016c0.002-0.005,0.002-0.009,0.004-0.015   C127.312,385.68,127.302,385.68,127.292,385.68L127.292,385.68z" fill="#58454D"></path>
            <polygon fill="#58454D" points="105.421,342.607 105.419,342.61 105.422,342.611  "></polygon>
            <path d="M342.25,181.768c30.424,10.909-51.713,1.003-145.758,4.321c-2.457,0.502-8.574-1.238-3.715-3.625   C242.125,176.346,292.629,180.458,342.25,181.768z" fill="#58454D"></path>
            <path d="M189.19,212.681c29.885,0.827,59.727,2.492,89.587,3.889c14.062,0.695,28.122,1.417,42.183,2.128   c4.475-0.506,5.669,6.479,0.764,6.486C316.566,224.953,124.005,215.26,189.19,212.681z" fill="#58454D"></path>
            <path d="M110.173,347.601c-2.067-0.412-16.964-0.703-10.557-4.479c11.682-1.639,123.812,5.988,123.921,5.995   c3.328,0.715,11.068,0.139,12.132,3.777c-2.651,4.16-15.227,1.413-20.092,1.826C164.784,351.646,127.176,349.435,110.173,347.601z" fill="#58454D"></path>
            <path d="M100.478,380.279c4.86,0.049,107.087,1.113,109.602,8.455c-3.018,4.261-10.737,1.556-15.378,1.791   c-110.002-8.349-70.805-3.529-95.444-7.636C97.914,382.573,96.757,382.139,100.478,380.279z" fill="#58454D"></path>
            <path d="M191.023,248.326c16.255,0.101,31.988,1.007,47.739,1.272c2.164-0.124,4.975,0.838,4.747,3.346   c-0.28,4.278-5.598,2.798-8.518,2.889c-25.679-1.064-51.414-1.507-76.993-4.173C136.34,246.984,188.224,247.971,191.023,248.326z" fill="#58454D"></path>
            <path d="M137.816,322.57c-9.502-1.109-1.802-12.702,3.992-13.816c2.922-1.166,3.621,1.526,4.134,3.85   C147.584,317.042,141.935,322.272,137.816,322.57z" fill="#ECCBAD"></path>
        </g>
    </symbol>
    <symbol version="1.1" id="scissors"
        xmlns="http://www.w3.org/2000/svg"
        xmlns:xlink="http://www.w3.org/1999/xlink" xml:space="preserve" viewBox="0 0 512.001 512.001">
        <path fill="#ACAAB1" d="M292.313,352.875L33.452,94.015C7.49,68.053,7.49,25.962,33.452,0l0,0L339.32,305.868"/>
        <path fill="#D7D5D9" d="M219.688,352.875l36.312-36.312l47.007-47.007L478.548,94.015c25.962-25.962,25.962-68.053,0-94.015
	l0,0L255.999,222.549l-47.007,47.007l-36.312,36.312L219.688,352.875z"/>
        <path fill="#3E3B43" opacity="0.11" enable-background="new" d="M219.688,352.875l36.312-36.312l47.007-47.007
	L478.549,94.015c25.962-25.962,25.962-68.053,0-94.015l0,0l-4.516,4.516c8.358,23.436,3.164,50.622-15.599,69.385L282.893,249.441
	l-47.007,47.007l-36.312,36.312L219.688,352.875z"/>
        <path fill="#FF5023" d="M199.844,325.712c-42.518-42.518-111.455-42.518-153.973,0s-42.518,111.455,0,153.973
	s111.455,42.518,153.973,0S242.362,368.23,199.844,325.712z M166.225,446.068c-23.952,23.952-62.785,23.952-86.737,0
	c-23.952-23.952-23.952-62.785,0-86.737c23.952-23.952,62.785-23.952,86.737,0C190.177,383.283,190.177,422.115,166.225,446.068z"/>
        <circle fill="#ACAAB1" cx="254.268" cy="267.584" r="10.937"/>
        <path fill="#FF5023" d="M466.131,325.712c-42.518-42.518-111.455-42.518-153.973,0s-42.518,111.455,0,153.973
	s111.455,42.518,153.973,0S508.649,368.23,466.131,325.712z M432.512,446.068c-23.952,23.952-62.785,23.952-86.737,0
	c-23.952-23.952-23.952-62.785,0-86.737c23.952-23.952,62.785-23.952,86.737,0C456.464,383.283,456.464,422.115,432.512,446.068z"/>
        <g opacity="0.23">
            <path fill="#891C00" d="M466.131,326.138c-0.45-0.45-0.907-0.888-1.362-1.328c28.18,42.295,23.617,99.954-13.697,137.269
		c-42.068,42.068-109.996,42.507-152.611,1.328c3.931,5.899,8.493,11.501,13.697,16.706c42.518,42.518,111.455,42.518,153.973,0
		C508.649,437.593,508.649,368.656,466.131,326.138z"/>
        </g>
        <g opacity="0.23">
            <path fill="#891C00" d="M199.844,326.138c-0.45-0.45-0.907-0.888-1.362-1.328c28.18,42.295,23.617,99.954-13.697,137.269
		c-42.068,42.068-109.996,42.507-152.611,1.328c3.931,5.899,8.493,11.501,13.697,16.706c42.518,42.518,111.455,42.518,153.973,0
		C242.362,437.593,242.362,368.656,199.844,326.138z"/>
        </g>
        <rect x="254.625" y="289.872" transform="matrix(-0.7071 0.7071 -0.7071 -0.7071 704.2701 310.7429)" style="opacity:0.21;" fill="#3E3B43" enable-background="new" width="66.306" height="22.717"/>
    </symbol>
    <symbol xmlns="http://www.w3.org/2000/svg"
        xmlns:xlink="http://www.w3.org/1999/xlink" aria-hidden="true" role="img" preserveAspectRatio="xMidYMid meet" viewBox="0 0 36 36" id="rock">
        <path fill="#66757F" d="M12 4.157s4-1.075 5-1.075s5 1.075 5 1.075s4 4.298 5 4.298c0 0 2 0 4 2.149s2 6.447 2 6.447s2 4.298 2 6.447s-1 4.298-2 5.373c-1 1.075-5 2.149-5 2.149s-1 2.149-3 3.224c-6 1.075-10 0-10 0l-2-2.149S6 31.02 5 31.02s-4-4.298-4-5.373c0-1.075 0-4.298 1-7.522c2-3.224 3-4.298 3-4.298S4 11.679 5 9.53c2-2.149 6-3.224 6-3.224l1-2.149z"></path>
        <path fill="#99AAB5" d="M12.409 4.49s3.633-1.021 4.574-1.021c.941 0 4.99 1.149 4.99 1.149s3.574 4.022 4.515 4.022c0 0 2.038-.045 3.921 1.979s1.708 5.617 1.708 5.617S34 20.282 34 22.305s-.941 4.047-1.882 5.059c-.941 1.012-4.706 2.023-4.706 2.023s-.941 2.023-2.824 3.035c-5.647 1.012-9.412 0-9.412 0l-1.882-2.023s-6.588-1.012-7.529-1.012S2 25.34 2 24.328c0-1.012 0-4.047.941-7.082C4.824 14.211 5.765 13.2 5.765 13.2s-1.188-1.643-.247-3.667C7.4 7.51 11.399 6.469 11.399 6.469l1.01-1.979z"></path>
        <path fill="#CCD6DD" d="M12.771 5.312s3.398-.892 4.278-.892c.88 0 4.667 1.003 4.667 1.003s3.342 3.511 4.222 3.511c0 0 1.906-.039 3.667 1.727c1.76 1.766 1.598 4.903 1.598 4.903s.275 4.245.988 4.373c1.81.324.167 3.713-.713 4.596s-7.01 1.277-7.01 1.277s.216 2.755-1.545 3.639c-5.281.883-7.565.246-7.565.246l-1.76-1.766s-4.29-4.097-5.17-4.097s-5.393-.319-5.393-1.202s0-3.533.88-6.182c1.76-2.649 2.641-3.533 2.641-3.533s-1.111-1.435-.231-3.201c1.76-1.766 5.5-2.675 5.5-2.675l.946-1.727z"></path>
        <path fill="#99AAB5" d="M6.29 12.597l3.981 1.851l-2.08 1.468l-4.274.532z"></path>
        <path fill="#66757F" d="M1.597 21.981s1.129 3.766 1.426 4.213s4.099.128 4.574.128c.475 0 2.792 1.213 2.792 1.213s-3.089.83-4.158.702c-1.069-.128-3.848-.627-4.099-1.341s-.535-4.915-.535-4.915z"></path>
        <path fill="#E1E8ED" d="M7.3 9.597c.49-.155 3.861-1.596 4.574-1.532c.713.064 3.743 1.787 3.03 2.362s-4.634.128-5.762.128S6.29 9.916 7.3 9.597zm-2.376 7.724c.303-.571 4.337-.766 4.337-.766s5.228 2.107 5.228 2.426s-4.752 2.49-5.228 2.553s-4.575-3.766-4.337-4.213zm11.703 3.894c-.094-.505 2.02-3.575 2.436-3.83c.416-.255 6-1.724 6.95-1.724s3.98 2.234 4.04 2.681c.059.447-2.673 3.511-3.386 3.766c-.713.256-9.862.064-10.04-.893zm5.347-8.427c-.225.537 5.347 1.277 5.941 1.021c.594-.255 1.663-1.979 1.485-2.426c-.178-.447-1.901-1.724-2.792-1.596c-.892.129-4.1 1.725-4.634 3.001zm-4.396-7.851c.498.107 3.802.894 4.218 1.532s-1.96 2.617-2.614 2.681c-.653.064-5.109-2.681-5.584-3s3.088-1.405 3.98-1.213z"></path>
        <path fill="#66757F" d="M13.063 31.364c-.416-.638.238-2.745.594-2.49s1.426 1.021 1.485 1.66c.059.638 1.129 1.851 1.901 2.234s4.99.383 5.703.128c.713-.255 2.376-1.66 2.792-2.49s.896-.891 1.874-1.02s1.922.844.588 1.634c-1.333.79-2.759 2.195-4.422 2.514c-1.663.319-7.069.575-8.02.192c-.951-.383-2.495-2.362-2.495-2.362z"></path>
        <path fill="#99AAB5" d="M20.2 26.754c-.501-.269-.688-2.495-.43-2.68s2.666.185 3.225.277c.559.092 3.956-.185 4.3.185s1.173 1.726 1.462 2.541c.289.816-1.591.693-2.322.508s-5.547-.461-6.235-.831zm-7.613-14.732c.653 0 3.386-.064 3.98 0c.594.064 2.495 1.851 1.604 2.043c-.891.192-3.267.83-3.624.894s-1.663-1.149-2.079-1.468c-.415-.32-.593-1.469.119-1.469zm7.486-1.787c.33-.531 1.604-.702 1.663-.128c.059.575-.297 1.851-1.01 1.787c-.713-.063-1.129-.893-.653-1.659zm-3.446 13.469c.593-.071 1.723-.192 1.723.319s-.713.702-1.545.638c-.831-.063-.713-.893-.178-.957z"></path>
        <path fill="#E1E8ED" d="M14.31 16.619c.519-.446 2.317-.511 2.733-.319c.416.192-.475 1.532-1.01 1.596c-.535.063-2.317-.767-1.723-1.277z"></path>
        <path fill="#66757F" d="M26.191 26.385c.593-.159 2.02-.319 1.96.128c-.059.447-.653 1.277-1.129 1.213s-1.306-1.213-.831-1.341zm-3.861 4.469c.656-.109 1.663-.638 1.604 0c-.059.638-.772 1.468-1.545 1.341c-.772-.128-.831-1.214-.059-1.341z"></path>
    </symbol>
</svg>